<?xml version="1.0" encoding="utf-8"?>
<!-- Generator: Adobe Illustrator 23.0.2, SVG Export Plug-In . SVG Version: 6.00 Build 0)  -->
<svg version="1.1" id="Layer_1" xmlns="http://www.w3.org/2000/svg" xmlns:xlink="http://www.w3.org/1999/xlink" x="0px" y="0px"
	 viewBox="0 0 3000 2200" style="enable-background:new 0 0 3000 2200;" xml:space="preserve">
<style type="text/css">
	.st0{fill:#FFFFFF;}
	.st1{fill:#E1F2FF;}
	.st2{fill:#C6E5FD;}
	.st3{fill:#B9E0FB;}
	.st4{fill:#CDE8F9;}
	.st5{fill:#77C3F0;}
	.st6{fill:#92D0F6;}
	.st7{fill:#B3DDFB;}
	.st8{fill:#60B3E5;}
	.st9{fill:#70BEED;}
	.st10{fill:#FFC5BD;}
	.st11{fill:#193368;}
	.st12{fill:#193972;}
	.st13{fill:#63B6D3;}
	.st14{fill:#37A6BF;}
	.st15{fill:#EF9B8F;}
	.st16{fill:#51A9DE;}
	.st17{fill:#C0E2FC;}
</style>
<g>
	<rect class="st0" width="3000" height="2200"/>
	<g>
		<g>
			<g>
				<path class="st1" d="M2482.8,1887.46H497.84c-15.09-14.38-29.21-29.85-42.15-46.55c-119.45-154.11-124.64-390.46-17.06-554.12
					c39.36-59.87,89.29-108.26,134.14-165.97c104.61-134.6,74.88-333.25,141.53-488.47c63.16-147.11,176.08-267.92,312.11-325.81
					c201.59-85.79,460.25-17.21,629.36,123.59c139.94,116.51,246.86,232.8,427.83,246.7c227.99,17.51,426.13,92.15,558.95,324.66
					c72.19,126.36,99.22,280.27,84.2,428.62C2705.51,1640,2611.86,1786.66,2482.8,1887.46z"/>
			</g>
			<g>
				<g>
					<path class="st2" d="M397.42,1270.22c24.23-36.77,51.51-68.29,80.4-101.66c19.42-22.33,36.88-42.59,53.87-64.47
						c60.57-77.97,76.14-179.79,91.2-278.36c10.86-71.05,22.08-144.53,49.98-209.52c64.71-150.66,178.91-269.86,313.36-327.04
						c96.07-40.9,209.52-48.98,328.08-23.33c110.32,23.92,218.05,76.21,303.36,147.25c20.56,17.08,41.12,34.82,59.25,50.47
						c114.49,98.66,213.37,183.86,367.45,195.74c126.51,9.72,229.84,36.51,315.91,81.9c101.53,53.59,181.59,133.36,244.73,243.87
						c70.2,122.8,100.23,275.62,84.57,430.32c-19.56,193-101.96,347.47-245.11,459.27l-0.37,0.29h-22.69v-3.32h21.78
						c142.1-111.07,224.02-264.69,243.47-456.6c15.59-153.94-14.29-305.99-84.11-428.14c-62.84-109.98-142.49-189.35-243.51-242.66
						c-85.73-45.21-188.72-71.91-314.85-81.6c-154.97-11.93-254.17-97.42-369.04-196.41c-18.12-15.64-38.67-33.37-59.21-50.43
						c-84.96-70.75-192.27-122.83-302.17-146.67c-118.02-25.52-230.91-17.51-326.49,23.19C853.52,349.15,739.9,467.75,675.52,617.65
						c-27.71,64.56-38.9,137.8-49.73,208.72c-15.12,98.93-30.75,201.23-91.87,279.9c-17.05,21.94-34.54,42.24-53.99,64.6
						c-28.81,33.29-56.03,64.73-80.14,101.32c-52.18,79.44-79.32,178.94-76.45,280.17c2.87,101.98,36.07,198.93,93.46,272.99
						c12.58,16.17,26.68,31.73,41.9,46.23h23.12v3.32h-23.7l-0.69-0.08l-0.43-0.51c-15.41-14.66-29.68-30.4-42.42-46.77
						c-57.84-74.64-91.3-172.33-94.19-275.08C317.5,1450.5,344.85,1350.26,397.42,1270.22z"/>
				</g>
			</g>
			<g>
				<g>
					<path class="st2" d="M2268.88,1688.34c2.89,23.58,4.55,47.16,5.13,70.67c0.41,15.02,0.34,30-0.17,44.95
						c-0.41,12.71-1.12,25.41-2.21,38.05c-0.17,2.62-0.37,5.23-0.61,7.81c-0.76,8.19-1.67,16.36-2.66,24.51h47.04
						c11.74-20.19,19.45-42.14,26.57-65.22c18.75-60.65,26.16-126.97,15.43-191.01c-6.29-37.58-21.2-77.29-55.65-102.33
						c-22.19-16.14-47.16-5.54-53.58,15.7c-7.27,24.05,0.17,50.42,5.98,74.92C2260.63,1633.64,2265.55,1660.82,2268.88,1688.34z"/>
				</g>
				<g>
					<g>
						<path class="st3" d="M2324.84,1644.85c8.05,58.06,5.95,118.34-9.65,174.97c-5.18,18.77-11.98,37.02-20.36,54.52h3.78
							c42.91-90.43,43.82-201.6,15.43-295.77c-6.66-22.02-15.12-44-27.69-63.36c-1.15-1.84-4.11-0.14-2.92,1.73
							C2307.72,1554.44,2318.79,1601.12,2324.84,1644.85z"/>
					</g>
				</g>
				<g>
					<path class="st2" d="M2489.37,1874.34c18.39-16.78,37.57-32.82,57.74-47.86c22.66-16.89,46.21-32.41,70.84-46.78
						c22.19-12.91,46.89-25.99,59.52-48.28c11.14-19.71,1.39-45.56-26.09-50.59c-42.74-7.78-82.53,9.1-114.7,30.92
						c-54.8,37.14-98.56,89.25-130.12,145.75c-3.14,5.62-6.16,11.23-9.09,16.84H2489.37z"/>
				</g>
				<g>
					<g>
						<path class="st3" d="M2423.71,1874.34c42.13-66.17,105.52-120.41,173.67-155.08c20.86-10.6,42.94-19.81,66.05-24.16
							c2.14-0.41,1.26-3.67-0.88-3.26c-45.76,8.6-89.01,34.04-126.22,61.05c-45.44,32.99-85.91,73.94-116.18,121.45H2423.71z"/>
					</g>
				</g>
				<g>
					<g>
						<path class="st3" d="M2161.01,1659.26c54.31,59.46,85.75,136.27,100.72,215.08h3.44c-14.88-78.65-45.93-155.22-99.57-215.05
							c-1.39-1.6-2.82-3.16-4.28-4.72c-1.49-1.63-3.91,0.78-2.41,2.38C2159.62,1657.69,2160.33,1658.47,2161.01,1659.26z"/>
					</g>
				</g>
				<g>
					<g>
						<path class="st4" d="M2207.83,1748.14c-11.45,5.09-25.15,6.61-38.23,4.25c-13.08-2.36-25.45-8.6-34.51-17.39
							c10.96-6.41,22.44-10.3,35.98-8.19C2184.61,1728.91,2199.05,1738.66,2207.83,1748.14z"/>
					</g>
					<g>
						<path class="st4" d="M2250.71,1857.07c-11.6,3.83-24.69,4.07-36.51,0.67s-22.29-10.41-29.23-19.56
							c11.38-5.13,22.8-7.81,35.1-4.62C2232.37,1836.75,2244.17,1847.29,2250.71,1857.07z"/>
					</g>
					<g>
						<path class="st4" d="M2214.85,1631.59c-16.52,13.58-22.7,35.87-15.41,55.58c10.91-2.03,19.98-11.84,21.29-21.48
							C2222.06,1656.06,2220.38,1640.42,2214.85,1631.59z"/>
					</g>
					<g>
						<path class="st4" d="M2178.25,1691.89c-19.84,13.52-47.36,9.56-63.86-9.19C2134.79,1670.91,2160.55,1675.09,2178.25,1691.89z"
							/>
					</g>
					<g>
						<path class="st4" d="M2290.04,1747.36c-23.79,12.45-37.59,37.34-34.4,62.07c13.73-0.06,27.47-9.67,31.8-20.72
							C2291.77,1777.67,2294.2,1758.91,2290.04,1747.36z"/>
					</g>
					<g>
						<path class="st4" d="M2228.73,1810.46c-27.78,11.68-59.85,1.17-74.42-24.39C2182.28,1776.55,2212.16,1786.95,2228.73,1810.46z
							"/>
					</g>
					<g>
						<path class="st4" d="M2271.2,1852.62c-2.36-23.04,16.3-40.38,43.32-40.25C2314.91,1834.71,2296.98,1850.63,2271.2,1852.62z"/>
					</g>
					<g>
						<path class="st4" d="M2113.88,1612.33c13.06,2.54,25.81,7.77,35.56,16.01c9.75,8.24,16.24,19.66,16.14,31.08
							c-13.93-0.02-29.6-3.86-39.44-12.93C2116.3,1637.42,2112.96,1624.3,2113.88,1612.33z"/>
					</g>
					<g>
						<path class="st4" d="M2264.21,1683.37c1.58,11.42,0.06,23.18-5.82,33.09c-5.89,9.91-16.41,17.8-29.14,20.21
							c-4.68-11.6-5.69-25.48,1.08-35.65C2237.1,1690.84,2250.58,1685.21,2264.21,1683.37z"/>
					</g>
				</g>
				<g>
					<path class="st4" d="M2342.7,1874.34h43.44c0.19-0.38,0.4-0.72,0.59-1.1c58.74-123.77,166.58-219.81,220.76-345.63
						c11.5-26.71,13.59-75.67-29.74-70.62c-43.28,5.05-79.15,35.95-106.68,69.73c-66.89,82.11-95.41,178.99-119.19,280.72
						c-4.8,20.55-12.78,43.25-9.62,64.7C2342.37,1872.94,2342.56,1873.59,2342.7,1874.34z"/>
				</g>
				<g>
					<g>
						<path class="st3" d="M2355.35,1874.34c5.87-59.92,26.68-117.25,52.23-171.55c27.56-58.56,58.42-115.67,103.36-162.86
							c24.14-25.34,51.25-47.64,80.67-66.58c1.83-1.18,0.13-4.12-1.72-2.93c-51.35,33.06-95.74,76.48-129.44,127.46
							c-19.57,29.6-35.74,61.51-51.15,93.43c-14.38,29.79-27.51,60.26-37.78,91.72c-9.69,29.71-16.58,60.25-19.58,91.31H2355.35z"/>
					</g>
				</g>
				<g>
					<path class="st2" d="M635.23,1819.21c1.49,1.83,3.09,3.67,4.76,5.54c2.45,2.89,5.03,5.88,7.58,9.17
						c4.38,5.71,7.88,12.06,10.4,18.79c2.64,6.92,4.12,14.24,4.62,21.63h74.9c0.01-3.89-0.26-7.79-0.87-11.67
						c-1.5-9.65-4.08-19.3-3.98-28.78c0.03-3.16,0.37-6.29,1.16-9.41c1.02-4.01,2.65-7.71,4.72-11.21
						c4.79-8.02,11.79-14.95,18.24-22.15c1.94-2.14,3.81-4.31,5.57-6.56c7.54-9.55,12.77-20.79,15.59-32.65
						c3.19-13.28,3.4-27.35,0.48-40.63c-1.02-4.93-2.51-9.72-4.45-14.34c-11.65-28.13-46.1-44.61-47.77-78.01
						c-1.19-24.02,17.67-47.8,9.55-70.46c-6.15-17.26-21.64-28.34-36.25-38.19c-7.54-5.1-13.52-8.26-18.69-16.24
						c-2.75-4.25-9.07-17.46-8.8-24.5c-5.1,9.78-10.02,19.77-12.5,30.51c-2.31,10.06-1.87,20.66,1.46,30.41
						c3.4,9.89,8.19,18.69,8.32,29.46c0.41,27.86-24.94,48.41-36.93,73.52c-7.27,15.15-8.53,31.6-5.81,48.04
						c2.75,16.44,11.11,30.61,14.41,46.78c2.14,10.67-0.98,20.08-5.13,29.32c-3.02,6.83-6.63,13.56-9,20.66
						c-0.61,1.87-1.16,3.81-1.56,5.74c-0.07,0.2-0.1,0.37-0.14,0.58c-3.26,15.87,2.17,25.07,10.09,34.62
						C635.19,1819.18,635.23,1819.18,635.23,1819.21z"/>
				</g>
				<g>
					<path class="st2" d="M602.52,1874.34c-2.93-5.61-5.94-11.22-9.09-16.84c-31.56-56.5-75.32-108.62-130.12-145.75
						c-32.17-21.81-71.96-38.7-114.7-30.92c-27.49,5.03-37.24,30.88-26.06,50.59c12.6,22.29,37.3,35.37,59.49,48.28
						c24.63,14.37,48.18,29.9,70.84,46.78c20.16,15.03,39.34,31.08,57.74,47.86H602.52z"/>
				</g>
				<g>
					<g>
						<path class="st3" d="M575.83,1874.34h4.48c-42.58-67.72-107.24-123.24-176.79-158.41c-20.86-10.57-42.98-19.74-66.08-24.09
							c-2.11-0.41-3.02,2.85-0.88,3.26c44.51,8.39,86.47,32.85,122.82,58.88C504.87,1786.55,545.41,1827.2,575.83,1874.34z"/>
					</g>
				</g>
				<g>
					<g>
						<path class="st3" d="M753.08,1874.34c20.48-69.09,54.99-134.63,107.85-183.99c0.71-0.71,1.46-1.36,2.17-2.04
							c1.6-1.46-0.82-3.87-2.41-2.38c-1.39,1.29-2.79,2.58-4.18,3.94c-52.35,49.7-86.6,115.37-106.94,184.47H753.08z"/>
					</g>
				</g>
				<g>
					<g>
						<path class="st4" d="M810.07,1770.42c10.39,5.64,23.16,8.11,35.64,6.86c12.48-1.24,24.58-6.17,33.76-13.76
							c-9.83-6.85-20.33-11.37-33.22-10.41C833.35,1754.07,819.03,1762.16,810.07,1770.42z"/>
					</g>
					<g>
						<path class="st4" d="M761.56,1869.64c10.63,4.47,22.92,5.68,34.29,3.38c11.37-2.31,21.75-8.11,28.96-16.2
							c-10.32-5.68-20.86-9.06-32.66-6.98C780.33,1851.91,768.45,1860.94,761.56,1869.64z"/>
					</g>
					<g>
						<path class="st4" d="M812.21,1660.28c14.52,14.01,18.66,35.44,10.32,53.43c-10.1-2.73-17.9-12.64-18.41-21.8
							C803.59,1682.75,806.35,1668.16,812.21,1660.28z"/>
					</g>
					<g>
						<path class="st4" d="M842.11,1719.74c17.65,14.21,43.82,12.55,60.75-3.84C884.56,1703.27,860.02,1705.27,842.11,1719.74z"/>
					</g>
					<g>
						<path class="st4" d="M732.8,1763.52c21.44,13.49,32.55,37.94,27.69,60.95c-12.91-1.09-25.11-11.16-28.35-21.87
							S728.02,1774.06,732.8,1763.52z"/>
					</g>
					<g>
						<path class="st4" d="M785.72,1827.46c25.25,13.07,56.2,5.59,71.82-17.35C831.96,1799.05,803.08,1806.59,785.72,1827.46z"/>
					</g>
					<g>
						<path class="st4" d="M742.62,1863.92c3.95-21.49-12.3-39.2-37.72-41.1C702.85,1843.79,718.53,1860.12,742.62,1863.92z"/>
					</g>
					<g>
						<path class="st4" d="M908.62,1649.75c-12.47,1.41-24.86,5.37-34.64,12.39c-9.79,7.02-16.75,17.27-17.52,28.02
							c13.1,1.03,28.13-1.41,38.06-9.2C904.46,1673.16,908.58,1661.07,908.62,1649.75z"/>
					</g>
					<g>
						<path class="st4" d="M761.9,1705.27c-2.34,10.62-1.8,21.79,2.99,31.56c4.79,9.76,14.09,17.97,25.89,21.19
							c5.27-10.56,7.26-23.54,1.66-33.61C786.84,1714.34,774.58,1708.02,761.9,1705.27z"/>
					</g>
				</g>
				<g>
					<path class="st4" d="M613.86,1874.34h43.44c0.14-0.75,0.32-1.4,0.44-2.19c3.17-21.45-4.82-44.15-9.62-64.7
						c-23.78-101.73-52.29-198.61-119.19-280.72c-27.53-33.79-63.39-64.69-106.68-69.73c-43.33-5.05-41.25,43.9-29.74,70.62
						c54.18,125.82,162.02,221.86,220.76,345.63C613.45,1873.62,613.67,1873.96,613.86,1874.34z"/>
				</g>
				<g>
					<g>
						<path class="st3" d="M538.16,1601.96c18.3,28.08,33.6,58.16,48.24,88.27c14.56,29.95,27.89,60.57,38.31,92.23
							c9.84,29.88,16.88,60.6,19.93,91.87h3.4c-5.79-59.5-26.18-116.45-51.39-170.46c-28.13-60.26-59.87-119.02-106.19-167.38
							c-24.08-25.13-51.12-47.25-80.37-66.08c-1.84-1.19-3.55,1.75-1.71,2.93C460.03,1506.6,504.61,1550.46,538.16,1601.96z"/>
					</g>
				</g>
				<g>
					<g>
						<path class="st3" d="M698.35,1592.66c-0.99,18.07-9,32.21-17.16,47.84c-5.4,10.33-9.89,21.44-7.64,33.26
							c2.51,13.25,10.77,24.53,17.09,36.12c8.22,14.98,11.82,31.46,10.33,48.48c-2.68,31.16-18.72,59.22-21.85,90.34
							c-0.85,8.53-0.96,17.08-0.75,25.64h3.4c-0.17-6.63-0.17-13.26,0.28-19.89c2.11-31.39,17.4-59.25,21.68-90.17
							c1.97-14.41,1.02-28.98-3.97-42.71c-4.62-12.64-12.78-23.44-18.45-35.57c-8.32-17.84-3.53-32.28,5.5-48.72
							c6.83-12.43,12.71-24.36,14.41-38.66c1.83-15.19,0.71-32.65-5.47-46.78c-2.99-6.86-7-13.15-10.5-19.74
							c-5.06-9.55-8.6-19.6-10.97-30.1c-0.48-2.14-3.74-1.26-3.26,0.88c3.4,15.09,9.75,27.96,17.12,41.38
							C696.38,1559.3,699.27,1575.54,698.35,1592.66z"/>
					</g>
				</g>
			</g>
			<g>
				<ellipse class="st2" cx="1500" cy="1882.74" rx="1230.76" ry="66.12"/>
			</g>
		</g>
		<g>
			<g>
				<path class="st2" d="M2433.45,1156.79c-84.9,0-153.73,68.83-153.73,153.73s68.83,153.73,153.73,153.73
					c84.9,0,153.73-68.83,153.73-153.73S2518.35,1156.79,2433.45,1156.79z M2433.45,1405.97c-52.72,0-95.46-42.74-95.46-95.46
					s42.74-95.46,95.46-95.46c52.72,0,95.46,42.74,95.46,95.46S2486.17,1405.97,2433.45,1405.97z"/>
			</g>
			<g>
				<circle class="st2" cx="2433.45" cy="1310.51" r="58.57"/>
			</g>
			<g>
				<g>
					<path class="st2" d="M2458.26,1118.7c-8.31-1.08-16.66-1.63-24.8-1.63c-8.15,0-16.5,0.55-24.81,1.63l-2.01,0.26l-15.86,71.02
						h85.38l-15.87-71.02L2458.26,1118.7z"/>
				</g>
				<g>
					<path class="st2" d="M2406.63,1502.06l2.01,0.26c8.31,1.08,16.66,1.63,24.81,1.63c8.14,0,16.49-0.55,24.8-1.63l2.01-0.26
						l15.87-71.11h-85.38L2406.63,1502.06z"/>
				</g>
				<g>
					<path class="st2" d="M2315.37,1157.35c-6.68,5.14-12.97,10.64-18.7,16.38c-5.82,5.82-11.32,12.11-16.38,18.7l-1.23,1.61
						l38.98,61.44l60.38-60.37l-61.44-39L2315.37,1157.35z"/>
				</g>
				<g>
					<path class="st2" d="M2488.42,1425.86l61.5,39.07l1.61-1.24c6.69-5.15,12.98-10.66,18.7-16.39
						c5.79-5.78,11.3-12.07,16.39-18.69l1.24-1.61l-39.07-61.51L2488.42,1425.86z"/>
				</g>
				<g>
					<path class="st2" d="M2312.93,1267.83l-71.02,15.86l-0.26,2.01c-1.09,8.3-1.64,16.65-1.64,24.81s0.55,16.52,1.64,24.81
						l0.26,2.01l71.02,15.86V1267.83z"/>
				</g>
				<g>
					<path class="st2" d="M2625.26,1285.7l-0.26-2.01l-71.11-15.86v85.38l71.11-15.86l0.26-2.01c1.09-8.3,1.64-16.64,1.64-24.81
						S2626.35,1294,2625.26,1285.7z"/>
				</g>
				<g>
					<path class="st2" d="M2279.06,1426.99l1.23,1.61c5.07,6.6,10.58,12.89,16.38,18.69c5.72,5.73,12.01,11.25,18.7,16.39l1.61,1.24
						l61.44-39l-60.38-60.37L2279.06,1426.99z"/>
				</g>
				<g>
					<path class="st2" d="M2587.87,1194.04l-1.24-1.61c-5.08-6.6-10.59-12.89-16.39-18.7c-5.73-5.74-12.02-11.25-18.7-16.38
						l-1.61-1.24l-61.5,39.07l60.38,60.38L2587.87,1194.04z"/>
				</g>
			</g>
		</g>
		<g>
			<g>
				<g>
					<g>
						<path class="st2" d="M2025.04,1053.57l1.11-0.44l0.42-0.64l22.28-33.82c14.62,10.26,32.39,16.34,51.6,16.34
							c49.68,0,89.95-40.27,89.95-89.95c0-40-26.13-73.86-62.23-85.55l29.25-15.93l0.88-0.48l0.26-1.37l5.11-26.95
							c4.17,2.02,8.26,4.17,12.19,6.57l34.35-21.8l1.52,1.17c6.29,4.84,12.22,10.03,17.62,15.44c5.48,5.48,10.67,11.41,15.44,17.62
							l1.16,1.52l-21.79,34.35c7.7,12.61,13.51,26.5,17.08,41.26l39.72,8.87l0.25,1.9c1.02,7.82,1.54,15.69,1.54,23.38
							c0,7.69-0.52,15.56-1.54,23.38l-0.25,1.9l-39.72,8.87c-3.57,14.76-9.37,28.65-17.08,41.26l21.79,34.35l-1.16,1.52
							c-4.78,6.22-9.97,12.15-15.44,17.61c-5.39,5.4-11.32,10.6-17.62,15.45l-1.52,1.17l-34.35-21.8
							c-12.61,7.71-26.51,13.51-41.28,17.08l-8.86,39.72l-1.9,0.25c-7.83,1.02-15.7,1.53-23.38,1.53c-7.67,0-15.54-0.52-23.37-1.53
							l-1.9-0.25l-8.87-39.72c-14.77-3.57-28.67-9.37-41.28-17.08l-34.34,21.81l-1.52-1.17c-6.02-4.63-11.66-9.59-16.86-14.73
							L2025.04,1053.57z"/>
					</g>
				</g>
				<g>
					<g>
						<path class="st2" d="M1913.54,915.84l0.25-1.9l39.72-8.86c3.57-14.77,9.37-28.66,17.08-41.28l-21.81-34.34l1.17-1.52
							c4.79-6.22,9.98-12.15,15.45-17.62c5.4-5.41,11.33-10.6,17.62-15.44l1.52-1.17l34.34,21.81c12.61-7.71,26.5-13.51,41.27-17.08
							l8.88-39.72l1.9-0.25c7.84-1.02,15.7-1.53,23.37-1.53c7.68,0,15.55,0.52,23.38,1.53l1.9,0.25l8.87,39.72
							c6.75,1.63,13.29,3.78,19.63,6.32l-0.62,29.61l-25.67,19.21c-8.67-2.78-17.9-4.31-27.49-4.31
							c-49.68,0-89.95,40.27-89.95,89.95c0,30.36,15.09,57.15,38.13,73.44l-26.32,29.18l-60.22,15.93
							c-2.04-2.38-4.06-4.79-5.98-7.28l-1.17-1.52l21.81-34.34c-7.71-12.61-13.51-26.51-17.08-41.28l-39.72-8.86l-0.25-1.9
							c-1.02-7.82-1.54-15.68-1.54-23.38C1912,931.52,1912.52,923.65,1913.54,915.84z"/>
					</g>
				</g>
				<g>
					<g>
						<polygon class="st2" points="2157.87,775.23 2157.87,799.55 2165.97,779.28 						"/>
					</g>
				</g>
				<g>
					<g>
						<polygon class="st2" points="1961.48,1068.39 1928.4,1077.51 1933.07,1084.68 						"/>
					</g>
				</g>
			</g>
			<g>
				<g>
					<g>
						<path class="st2" d="M2113.39,1208.5l-0.86-14.41c15.9-0.94,31.73-3.39,47.04-7.28l3.55,14
							C2146.93,1204.92,2130.19,1207.5,2113.39,1208.5z M2075.64,1208.11c-16.74-1.35-33.41-4.29-49.55-8.76l3.85-13.92
							c15.27,4.22,31.03,7.01,46.86,8.28L2075.64,1208.11z M2198.97,1188.95l-5.5-13.35c14.64-6.03,28.8-13.5,42.09-22.22
							l7.91,12.08C2229.42,1174.67,2214.45,1182.57,2198.97,1188.95z M1990.47,1186.7c-15.36-6.72-30.16-14.95-44-24.45l8.18-11.9
							c13.09,8.99,27.08,16.77,41.6,23.13L1990.47,1186.7z M2273.51,1142.59l-9.53-10.84c11.91-10.47,22.89-22.13,32.65-34.66
							l11.39,8.87C2297.7,1119.2,2286.09,1131.52,2273.51,1142.59z M1916.92,1138.72c-12.35-11.35-23.7-23.92-33.71-37.36
							l11.58-8.63c9.48,12.72,20.21,24.62,31.91,35.36L1916.92,1138.72z M2329.07,1074.58l-12.52-7.18
							c7.89-13.78,14.5-28.37,19.64-43.35l13.66,4.68C2344.41,1044.58,2337.42,1060,2329.07,1074.58z M1862.87,1069.57
							c-8.04-14.75-14.69-30.32-19.78-46.28l13.76-4.39c4.81,15.1,11.1,29.82,18.69,43.76L1862.87,1069.57z M2359.51,992.22
							l-14.19-2.69c2.95-15.52,4.44-31.47,4.44-47.39l9.86-0.73l4.58,0.59C2364.21,958.96,2362.63,975.81,2359.51,992.22z
							 M1834.21,986.58c-2.44-14.57-3.68-29.52-3.69-44.44l0.06-5.72l14.44,0.27l-0.06,5.45c0.01,14.12,1.18,28.27,3.49,42.06
							L1834.21,986.58z M2347.13,905.46c-2.28-15.7-6.08-31.26-11.28-46.23l13.64-4.74c5.51,15.84,9.52,32.28,11.93,48.89
							L2347.13,905.46z M1848.28,901.12l-14.26-2.33c2.71-16.58,7.02-32.96,12.8-48.68l13.55,4.98
							C1854.91,869.96,1850.84,885.44,1848.28,901.12z M2321.74,826.42c-7.27-14.07-15.93-27.54-25.74-40.04l11.35-8.91
							c10.38,13.21,19.53,27.45,27.22,42.33L2321.74,826.42z M1875.05,822.52l-12.71-6.85c7.95-14.74,17.35-28.82,27.96-41.85
							l11.2,9.11C1891.48,795.25,1882.58,808.58,1875.05,822.52z M2272.01,759.9c-11.48-10.99-24.04-20.94-37.32-29.57l7.87-12.11
							c14.04,9.12,27.31,19.64,39.44,31.26L2272.01,759.9z M1925.95,756.87l-9.82-10.59c12.31-11.4,25.76-21.69,39.98-30.57
							l7.66,12.24C1950.32,736.36,1937.6,746.09,1925.95,756.87z M2203.42,713.02c-14.39-6.68-29.49-12-44.88-15.83l3.48-14.02
							c16.28,4.05,32.25,9.69,47.47,16.75L2203.42,713.02z M1995.31,711.22l-5.85-13.2c15.35-6.8,31.41-12.15,47.76-15.91
							l3.24,14.07C2025.01,699.73,2009.81,704.8,1995.31,711.22z M2123.35,691.06c-15.71-1.62-31.96-1.73-47.61-0.41l-1.21-14.38
							c16.53-1.41,33.69-1.28,50.3,0.42L2123.35,691.06z"/>
					</g>
				</g>
			</g>
		</g>
		<g>
			<g>
				<g>
					<path class="st5" d="M2050.5,921.87H920.74c-33.17,0-60.06,26.89-60.06,60.06v854.59h1249.89V981.93
						C2110.57,948.76,2083.68,921.87,2050.5,921.87z"/>
				</g>
			</g>
			<g>
				<g>
					<polygon class="st0" points="906.54,1745.56 906.54,967.74 906.54,967.74 2064.7,967.74 2064.7,1745.56 					"/>
				</g>
			</g>
			<g>
				<g>
					<path class="st6" d="M729.24,1801.36v23.31c0,25.96,21.05,47.01,47.01,47.01H2195c25.96,0,47.01-21.05,47.01-47.01v-23.31
						H729.24z"/>
				</g>
			</g>
			<g>
				<g>
					<path class="st2" d="M1310.2,1801.36v3.43c0,5.81,4.71,10.52,10.52,10.52h329.82c5.81,0,10.52-4.71,10.52-10.52v-3.43H1310.2z"
						/>
				</g>
			</g>
		</g>
		<g>
			<g>
				<g>
					<path class="st5" d="M2050.5,903.22H920.74c-33.17,0-60.06,26.89-60.06,60.06v854.59h1249.89V963.28
						C2110.57,930.11,2083.68,903.22,2050.5,903.22z"/>
				</g>
			</g>
			<g>
				<g>
					<polygon class="st0" points="906.54,1726.91 906.54,949.08 906.54,949.08 2064.7,949.08 2064.7,1726.91 					"/>
				</g>
			</g>
			<g>
				<g>
					<path class="st6" d="M729.24,1782.71v23.31c0,25.96,21.05,47.01,47.01,47.01H2195c25.96,0,47.01-21.05,47.01-47.01v-23.31
						H729.24z"/>
				</g>
			</g>
			<g>
				<g>
					<path class="st2" d="M1310.2,1782.71v3.43c0,5.81,4.71,10.52,10.52,10.52h329.82c5.81,0,10.52-4.71,10.52-10.52v-3.43H1310.2z"
						/>
				</g>
			</g>
		</g>
		<g>
			<g>
				<g>
					<circle class="st7" cx="1579.03" cy="571.99" r="250.24"/>
				</g>
			</g>
			<g>
				<g>
					<path class="st1" d="M1732.21,418.82c-40.84-40.84-95.23-63.33-153.15-63.33c-57.92,0-112.31,22.49-153.15,63.33
						c-84.43,84.45-84.43,221.85,0,306.3c40.99,40.98,95.37,63.55,153.13,63.55c33.61,0,67.32-8.04,97.5-23.25
						c20.55-10.35,39.28-23.91,55.68-40.31c16.38-16.38,29.94-35.11,40.31-55.67C1814.67,585.82,1798.47,485.1,1732.21,418.82z
						 M1579.05,373.12c53.21,0,103.17,20.66,140.68,58.18c60.88,60.87,75.77,153.39,37.04,230.22
						c-9.52,18.88-21.98,36.08-37.04,51.13c-15.06,15.07-32.27,27.53-51.15,37.04c-27.71,13.97-58.67,21.36-89.55,21.36h-0.01
						c-53.06,0-103.02-20.74-140.65-58.4c-37.52-37.51-58.18-87.47-58.18-140.68c0-53.2,20.66-103.16,58.18-140.67
						C1475.89,393.78,1525.85,373.12,1579.05,373.12z"/>
				</g>
			</g>
			<g>
				<g>
					<g>
						<path class="st8" d="M1488.89,449.69l11.95,11.95l0,0l18.57,18.57l-6.8,25.37l-25.37,6.8l-17.96-17.96l0,0l-12.56-12.56
							c-4.77,16.19-0.77,34.42,12,47.19c18.6,18.6,48.76,18.6,67.36,0c18.6-18.6,18.6-48.76,0-67.36
							C1523.3,448.91,1505.08,444.91,1488.89,449.69z"/>
					</g>
				</g>
				<g>
					<g>
						<path class="st8" d="M1697.67,686.45l-4.18,4.18c-9.11,9.11-23.88,9.11-33,0l-153.39-153.39l37.18-37.18l153.39,153.39
							C1706.78,662.57,1706.78,677.34,1697.67,686.45z"/>
					</g>
				</g>
			</g>
			<g>
				<g>
					<g>
						<path class="st5" d="M1589.77,594.31l-3.97,3.97c-1.64,1.64-4.31,1.64-5.95,0l-27.12-27.12c-1.64-1.64-1.64-4.31,0-5.95
							l3.97-3.97c1.64-1.64,4.31-1.64,5.95,0l27.12,27.12C1591.42,590,1591.42,592.67,1589.77,594.31z"/>
					</g>
				</g>
				<g>
					<g>
						<path class="st5" d="M1564.99,619.1l-73.06,73.06c-4.52,4.52-11.06,5.83-16.72,3.97c-0.68-0.25-1.39-0.55-2.07-0.89
							c-1.56-0.72-3.04-1.77-4.35-3.08l-9.92-9.92c-1.31-1.31-2.36-2.79-3.08-4.35c-0.38-0.72-0.68-1.44-0.89-2.15
							c-1.86-5.66-0.55-12.12,3.97-16.64l73.06-73.06l21.03-14.61l11.7-8.15l23.1,23.1l-8.15,11.7L1564.99,619.1z"/>
					</g>
				</g>
				<g>
					<g>
						<path class="st5" d="M1703.98,454.68l-3.82-3.82l-3.82-3.82l-21.43,11.48l-0.05,0.18c-1.54,5.8-5.85,13.4-10.09,17.64
							L1563.41,577.7l9.9,9.9l101.36-101.36c4.24-4.24,11.85-8.55,17.64-10.09l0.18-0.05L1703.98,454.68z"/>
					</g>
				</g>
			</g>
			<g>
				<g>
					<g>
						<path class="st8" d="M1539.61,602.59l-80.2,80.2l-0.55-0.55c-1.31-1.31-2.36-2.79-3.08-4.35l79.56-79.56
							c1.69-1.69,4.05-2.11,5.19-0.97C1541.72,598.53,1541.3,600.9,1539.61,602.59z"/>
					</g>
				</g>
				<g>
					<g>
						<path class="st8" d="M1552.7,615.68l-79.56,79.56c-1.56-0.72-3.04-1.77-4.35-3.08l-0.51-0.51l80.2-80.2
							c1.69-1.69,4.01-2.15,5.19-0.97C1554.86,611.66,1554.39,613.99,1552.7,615.68z"/>
					</g>
				</g>
			</g>
		</g>
		<g>
			<g>
				<path class="st9" d="M2637.79,1172.54h-922.33c-24.67,0-44.67,20-44.67,44.67v629.93c0,24.67,20,44.67,44.67,44.67h922.33
					c24.67,0,44.67-20,44.67-44.67v-629.93C2682.46,1192.54,2662.46,1172.54,2637.79,1172.54z"/>
				<path class="st0" d="M2619.96,1247.9h-886.69c-24.67,0-44.67,20-44.67,44.67v544.2c0,24.67,20,44.67,44.67,44.67h886.69
					c24.67,0,44.67-20,44.67-44.67v-544.2C2664.63,1267.9,2644.63,1247.9,2619.96,1247.9z"/>
				<circle class="st0" cx="1778.96" cy="1208.98" r="25.04"/>
				<circle class="st0" cx="1846.99" cy="1208.98" r="25.04"/>
				<circle class="st0" cx="1914.5" cy="1208.98" r="25.04"/>
			</g>
			<g>
				<g>
					<g>
						<circle class="st9" cx="1651.43" cy="1369.25" r="105.1"/>
					</g>
				</g>
				<g>
					<g>
						<g>
							<path class="st0" d="M1635.63,1421.66l-42.88-42.88c-4.19-4.19-4.19-10.98,0-15.18l0,0c4.19-4.19,10.98-4.19,15.18,0
								l27.7,27.7l59.28-59.29c4.19-4.19,10.98-4.19,15.18,0l0,0c4.19,4.19,4.19,10.98,0,15.17L1635.63,1421.66z"/>
						</g>
					</g>
				</g>
			</g>
			<rect x="1790.13" y="1272.94" class="st9" width="79.19" height="76.49"/>
			<rect x="1893.69" y="1278.36" class="st9" width="714.76" height="18.95"/>
			<rect x="1893.69" y="1328.45" class="st9" width="714.76" height="18.95"/>
			<g>
				<g>
					<g>
						<path class="st9" d="M2206.16,1685.01h-67.27c-0.17-9.67-0.26-15.57-0.26-17.67c0-21.81,3.6-39.74,10.81-53.82
							c7.21-14.07,21.63-29.89,43.26-47.49c21.64-17.59,34.56-29.1,38.78-34.56c6.51-8.61,9.76-18.11,9.76-28.5
							c0-14.42-5.76-26.77-17.28-37.07c-11.52-10.28-27.04-15.43-46.56-15.43c-18.82,0-34.56,5.37-47.22,16.09
							c-12.66,10.73-21.37,27.09-26.12,49.07l-68.06-8.44c1.94-31.47,15.34-58.2,40.23-80.19c24.88-21.99,57.55-32.98,98-32.98
							c42.56,0,76.42,11.13,101.57,33.38c25.15,22.25,37.72,48.14,37.72,77.69c0,16.35-4.63,31.83-13.85,46.43
							c-9.23,14.6-28.97,34.47-59.22,59.62c-15.65,13.01-25.37,23.48-29.15,31.4C2207.52,1650.45,2205.81,1664.62,2206.16,1685.01z
							 M2138.89,1784.73v-74.13h74.14v74.13H2138.89z"/>
					</g>
				</g>
			</g>
		</g>
		<g>
			<g>
				<g>
					<g>
						<path class="st10" d="M1003.23,1731.29l1.9,55.93c0.28,8.34-0.09,15.76,7.61,18.99l41.51,20.38
							c21.67,9.09,15.17,32.95-8.32,32.95H937.48v-33.04l-2.37-95.21H1003.23z"/>
					</g>
				</g>
				<g>
					<g>
						<path class="st11" d="M948.57,1823.9c-1.69-0.96-5.58-3.19-6.85-3.71c-4.34-1.75-8.67,2.48-8.67,7.12v55.13
							c0,4.65,3.77,8.41,8.41,8.41h204.22c6.09,0,11.02-4.93,11.02-11.02c0-0.73-0.15-1.6-0.29-2.32c-0.72-3.34-3.05-6.24-6.38-7.69
							l-121.63-58.95c-6.74-3.34-11.92-0.75-13.21,5.25c-2.13,9.87-10.7,15.88-30.95,15.62
							C969.54,1831.57,956.72,1828.52,948.57,1823.9z"/>
					</g>
					<g>
						<path class="st12" d="M933.05,1877.52v4.93c0,4.64,3.77,8.41,8.41,8.41h204.22c6.09,0,11.02-4.93,11.02-11.02
							c0-0.73-0.15-1.6-0.29-2.32H933.05z"/>
					</g>
				</g>
			</g>
			<g>
				<g>
					<polygon class="st10" points="718.91,1751.65 706.53,1862.05 640.94,1862.05 653.33,1751.65 					"/>
				</g>
				<g>
					<g>
						<path class="st11" d="M571.38,1887.57c1.97,7.03,8.58,12.43,22.36,13.41c19.55,1.27,71.73-0.7,97.74-4.36
							c15.89-2.11,21.38-5.96,21.94-15.8c0.14-2.39,0.28-5.06,0.42-8.02c0.28-12.24,0.09-26.18-0.53-40.12
							c-0.13-2.95-3.52-4.64-5.91-2.67c-7.03,5.63-11.54,7.54-19.13,8.02c-8.35,0.53-15.8-3.94-15.5-11.36
							c0.31-7.73-6.19-10.13-20.39-10.13c-8.44,0-13.78,0.15-25.6,10.55c-13.22,11.81-46.55,38.82-52.18,44.02
							C571.1,1874.35,569.41,1881.1,571.38,1887.57z"/>
					</g>
					<g>
						<path class="st12" d="M571.38,1887.57c1.97,7.03,8.58,13.78,22.36,14.77c19.55,1.27,71.73-0.7,97.74-4.36
							c15.89-2.11,21.38-7.31,21.94-17.16c0.14-2.39,0.28-5.06,0.42-8.02c-3.09,5.63-8.86,10.27-19.83,11.81
							c-27.28,4.08-87.9,5.63-108.43,4.5C580.66,1888.84,575.88,1888.42,571.38,1887.57z"/>
					</g>
				</g>
			</g>
			<g>
				<polygon class="st12" points="631.31,1798.23 656.79,1392.28 682.49,982.58 777.5,925.07 868.72,970.02 798.82,1392.28 
					731.62,1798.23 				"/>
			</g>
			<g>
				<polygon class="st12" points="920.87,1798.23 874.61,1392.28 826.49,969.97 917.61,925.07 1012.69,982.63 1016.95,1392.28 
					1021.16,1798.23 				"/>
			</g>
			<g>
				<g>
					<path class="st11" d="M843.72,1124.6c1.69,0,3.18-1.22,3.46-2.94l25-151.06c0.32-1.92-0.98-3.73-2.89-4.04
						c-1.93-0.33-3.73,0.98-4.04,2.89l-25,151.06c-0.32,1.92,0.98,3.73,2.89,4.04C843.33,1124.59,843.53,1124.6,843.72,1124.6z"/>
				</g>
			</g>
			<g>
				<path class="st13" d="M684.22,897.19c6.37-66.1,2.47-141.34-3.25-240.07L667.82,513.5c30.87-24.13,80.44-44.44,124.52-56.34
					l116.82,3.52c30.94,9.24,71.29,27.37,100.87,45.79L990.45,665.7c9.24,113.5,21.07,253.38,28.88,369.96H677.07
					C678.76,992.35,682.66,914.35,684.22,897.19z"/>
			</g>
			<g>
				<g>
					<path class="st14" d="M860.58,532.75c10.79,0,20.79-2.14,29.71-6.37c17.37-8.22,30.28-24.51,34.56-43.57
						c0.42-1.9-0.77-3.78-2.66-4.2c-1.94-0.41-3.78,0.78-4.2,2.66c-3.8,16.96-15.27,31.44-30.7,38.74
						c-10.36,4.91-22.82,6.59-35.35,5.22c-24.3-2.64-56.72-17.87-68.18-52.1c-0.62-1.85-2.66-2.82-4.45-2.23
						c-1.85,0.62-2.84,2.61-2.23,4.45c12.52,37.4,47.73,54,74.09,56.87C854.29,532.58,857.43,532.75,860.58,532.75z"/>
				</g>
			</g>
			<g>
				<g>
					<g>
						<g>
							<g>
								<path class="st10" d="M807.09,806.04l9.7,52.81c31.94-5.87,93.48-12.47,140.8-16.43c40.27-3.37,75.52-7.74,94.9-11.3
									l-15.22-82.9h0c-77.15,16.86-153.76,36.1-229.73,57.69L807.09,806.04z"/>
							</g>
						</g>
					</g>
				</g>
				<g>
					<g>
						<g>
							<g>
								
									<ellipse transform="matrix(0.7071 -0.7071 0.7071 0.7071 -252.7298 969.5274)" class="st10" cx="1043.96" cy="789.84" rx="42.14" ry="42.14"/>
							</g>
						</g>
					</g>
				</g>
				<g>
					<g>
						<g>
							<g>
								
									<ellipse transform="matrix(0.8394 -0.5436 0.5436 0.8394 -322.309 574.6019)" class="st10" cx="811.01" cy="832.61" rx="26.85" ry="26.85"/>
							</g>
						</g>
					</g>
				</g>
			</g>
			<g>
				<g>
					<g>
						
							<ellipse transform="matrix(0.3495 -0.937 0.937 0.3495 -256.3552 1298.7579)" class="st10" cx="807.09" cy="833.99" rx="27.17" ry="27.17"/>
					</g>
				</g>
				<g>
					<g>
						<path class="st10" d="M811.85,860.91c-4.2,1.8-10.5,4.19-16.46,5.62c-5.86,1.4-11.55,1.46-17.68,0.54
							c-6.24-0.94-23.11-8.44-28.96-14.28c-7.39,2.91-11.67,4.68-18.1,3.29c-2.34-0.51-4.72-1.26-6.5-2.86
							c-1.77-1.61-3.03-4.26-2.11-6.47c-2.8,0.05-5.6-1.1-7.56-3.1c-1.96-2-3.57-5.46-3.46-8.26c-2.72,0.16-5.48-1.11-7.14-3.28
							c-1.65-2.17-1.61-6.28-0.73-8.86c-3.03,1.52-6.07,3.04-9.1,4.56c-1.72,0.86-3.59,1.74-5.48,1.41c-3.03-0.54-4.67-4.03-4.6-7.1
							c0.07-3.25,1.49-6.35,3.43-8.96c1.94-2.61,4.39-4.78,6.82-6.94c10-8.86,23.36-14.56,34.73-21c8.35-4.73,32.67,2.48,42.13,3.64
							l42.51,19.7L811.85,860.91z"/>
					</g>
				</g>
				<g>
					<g>
						<path class="st15" d="M721.46,848.79c0.38,0,0.76-0.16,1.04-0.46l10.29-11.21l8.5-1.55c0.76-0.14,1.27-0.87,1.13-1.63
							s-0.85-1.29-1.63-1.13l-9.42,1.72l-10.93,11.91c-0.52,0.57-0.49,1.46,0.09,1.98C720.78,848.66,721.12,848.79,721.46,848.79z"
							/>
					</g>
				</g>
				<g>
					<g>
						<path class="st15" d="M710.48,837.46c0.39,0,0.78-0.16,1.06-0.48l12.18-13.94l12.29-1.29c0.78-0.08,1.34-0.78,1.26-1.55
							c-0.08-0.78-0.8-1.28-1.55-1.26l-13.38,1.41l-12.9,14.76c-0.52,0.58-0.45,1.48,0.13,1.98
							C709.82,837.35,710.15,837.46,710.48,837.46z"/>
					</g>
				</g>
				<g>
					<g>
						<path class="st15" d="M702.64,825.34c0.41,0,0.81-0.18,1.09-0.52l12.24-15.06l16.4-3.8c0.76-0.18,1.23-0.93,1.06-1.69
							c-0.18-0.76-0.94-1.22-1.69-1.06l-17.35,4.02l-12.84,15.82c-0.49,0.6-0.4,1.49,0.21,1.98
							C702.02,825.23,702.33,825.34,702.64,825.34z"/>
					</g>
				</g>
			</g>
			<g>
				<g>
					<g>
						<path class="st10" d="M746.42,541.36c13.16,27.26,2.58,59.84-23.58,74.32c-0.93,0.52-1.89,1.01-2.86,1.48
							c-28.23,13.63-62.17,1.79-75.8-26.44c-13.63-28.23-1.79-62.17,26.44-75.8C698.85,501.28,732.79,513.12,746.42,541.36z"/>
					</g>
				</g>
				<g>
					<g>
						
							<ellipse transform="matrix(0.7071 -0.7071 0.7071 0.7071 -326.2736 802.8531)" class="st10" cx="805.99" cy="795.27" rx="40.53" ry="40.53"/>
					</g>
				</g>
				<g>
					<g>
						<path class="st10" d="M644.19,590.71L644.19,590.71c36.37,76.56,78.02,150.48,124.68,221.24l0.62,0.95l73-35.24l0,0
							c-37.33-76.09-69.31-154.69-95.7-235.23l-0.35-1.08L644.19,590.71z"/>
					</g>
				</g>
			</g>
			<g>
				<g>
					<g>
						<g>
							<g>
								<path class="st10" d="M913.7,580.4l-50.54-18.13c-10.97,30.57-36.16,87.09-56.5,130.02c-17.3,36.52-31.23,69.2-37.89,87.74
									l79.33,28.47v0c24.17-75.18,46-151.1,65.47-227.63L913.7,580.4z"/>
							</g>
						</g>
					</g>
				</g>
				<g>
					<g>
						<g>
							<g>
								
									<ellipse transform="matrix(0.9007 -0.4345 0.4345 0.9007 -264.3811 430.1982)" class="st10" cx="808.76" cy="793.37" rx="42.14" ry="42.14"/>
							</g>
						</g>
					</g>
				</g>
				<g>
					<g>
						<g>
							<g>
								
									<ellipse transform="matrix(0.1329 -0.9911 0.9911 0.1329 205.2423 1375.4893)" class="st10" cx="888.75" cy="570.44" rx="26.85" ry="26.85"/>
							</g>
						</g>
					</g>
				</g>
			</g>
			<g>
				<g>
					<g>
						<g>
							<g>
								<path class="st10" d="M930.85,592.58c8.21,30.39,38.7,48.79,69.12,42.37c1.08-0.23,2.17-0.49,3.25-0.78
									c31.47-8.5,50.09-40.91,41.59-72.38c-8.5-31.47-40.91-50.09-72.38-41.59C940.97,528.7,922.35,561.11,930.85,592.58z"/>
							</g>
						</g>
					</g>
				</g>
				<g>
					<g>
						<g>
							<g>
								
									<ellipse transform="matrix(0.6532 -0.7572 0.7572 0.6532 -235.819 1064.6414)" class="st10" cx="1044.38" cy="789.77" rx="42.14" ry="42.14"/>
							</g>
						</g>
					</g>
				</g>
				<g>
					<g>
						<g>
							<g>
								<path class="st10" d="M1044.8,561.8L1044.8,561.8c23.52,84.93,36.9,153.13,40.11,215.81l0.15,1.17l-81.37,21.98l0,0
									c-22.44-85.22-38.33-125.81-72.4-207.09l-0.46-1.09L1044.8,561.8z"/>
							</g>
						</g>
					</g>
				</g>
			</g>
			<g>
				<g>
					<path class="st13" d="M986.55,753.38l-60.18-157.35c0,0-10.36-24.78-3.3-46.43c5.01-15.37,15.37-35.06,40.34-44.02
						c24-8.62,57.48-3.29,73.32,22.29c33.77,54.54,50.89,183.87,57.52,257.85l0.57,9.58c1.28,21.66-14.69,40.5-36.26,42.8
						L841.5,861.16l-16.06-66.72L986.55,753.38z"/>
				</g>
			</g>
			<g>
				<g>
					<g>
						<g>
							<path class="st10" d="M792.34,457.16l58.52-14.83l58.3,18.35l-0.01,6.41c0.29,17.51-11.62,32.69-25.31,38.97
								c-9.33,4.28-19.66,5.15-29.68,4.1C825.77,507.16,797.31,488.96,792.34,457.16z"/>
						</g>
					</g>
				</g>
				<g>
					<g>
						<path class="st11" d="M782.68,268.13c4.3-8.32,11.61-14.97,20.89-16.18c1.66-18.06,16.69-30.16,31.98-34.39
							c26.79-7.41,57.29-5.67,79.43,2.2c14.44,5.13,28.26,4.97,34.92,2.49c-0.48,4.58-2.84,8.84-6.1,11.3
							c12.34,5.98,27.24,7.05,40.2,2.64c0.25,15.25-9.22,29.68-23.38,35.35c5.58,4.64,13.52,6.71,20.57,5
							c-6.51,15.57-19.91,28.34-36.34,32.22l-102.92,116.5c-19.72-16.69-36.29-36.15-48.22-58.48
							c-11.66-21.82-17.62-46.68-16.87-71.41C777.14,286.01,778.38,276.45,782.68,268.13z"/>
					</g>
				</g>
				<g>
					<g>
						<polygon class="st10" points="804.02,481.11 892.96,486.75 895.11,452.75 903.01,327.46 814.06,321.86 811.47,362.69 						
							"/>
					</g>
				</g>
				<g>
					<g>
						<path class="st15" d="M811.47,362.69c4.4,46.03,39.35,82.51,83.63,90.07l7.9-125.29l-88.94-5.6L811.47,362.69z"/>
					</g>
				</g>
				<g>
					<g>
						
							<ellipse transform="matrix(0.283 -0.9591 0.9591 0.283 341.5975 1149.9642)" class="st15" cx="939.93" cy="346.51" rx="21.25" ry="18.92"/>
					</g>
				</g>
				<g>
					<g>
						<path class="st10" d="M794.83,305.39c-0.07,36.49,7.87,67.51,27.21,95.65c7.37,10.72,17.6,19.8,29.6,25.6
							c22.68,10.96,53.45,9.58,70.52-8.49c15.22-16.11,21.85-39.28,24.7-61.44c3.01-23.43,4.16-47.09,3.02-70.65
							c-1.61-33.36-33.59-60.53-79.04-60.44C819.74,225.72,794.91,262.78,794.83,305.39z"/>
					</g>
				</g>
				<g>
					<g>
						<path class="st11" d="M871.04,221.49c45.53,0,81.17,27.69,82.95,64.36c0.36,4.4,0,5.35,0,5.35
							c-32.03,11.14-77.74,8.84-110.03-2.17l-0.19-0.32c-2.39,10.59-9.67,20.62-17.09,24.52v16.21l-10.43,17.06h-21.72
							c-2.59-12.73-3.83-26.37-3.83-41.12C790.69,260.01,822.25,221.58,871.04,221.49z"/>
					</g>
				</g>
				<g>
					<g>
						
							<ellipse transform="matrix(0.9591 -0.283 0.283 0.9591 -64.9703 243.2243)" class="st10" cx="809.45" cy="346.51" rx="18.92" ry="21.25"/>
					</g>
				</g>
				<g>
					<g>
						<path class="st15" d="M819.74,349.91c0.04,0,0.07,0,0.11,0c0.96-0.06,1.7-0.9,1.65-1.87c-0.11-1.84-0.58-3.64-1.36-5.35
							c-2.6-5.76-8.84-9.47-14.27-8.78c-1,0.12-1.98,0.37-2.9,0.75c-1.85,0.76-3.46,2.01-4.68,3.64c-0.58,0.78-0.41,1.88,0.37,2.46
							c0.77,0.6,1.87,0.43,2.46-0.36c0.82-1.11,1.92-1.98,3.17-2.49c0.65-0.25,1.32-0.43,2.01-0.51c4.15-0.44,8.68,2.35,10.64,6.75
							c0.6,1.33,0.96,2.71,1.04,4.11C818.04,349.19,818.82,349.91,819.74,349.91z"/>
					</g>
				</g>
				<g>
					<g>
						<g>
							<path class="st15" d="M882.01,385.45c-0.53,0.06-1.03,0.37-1.33,0.86c-0.49,0.84-0.2,1.92,0.64,2.41
								c7.02,4.07,18.78,5.17,28.03,2.63c0.94-0.26,1.48-1.23,1.23-2.16c-0.25-0.94-1.22-1.51-2.16-1.23
								c-8.4,2.37-19.05,1.38-25.32-2.28C882.76,385.47,882.38,385.4,882.01,385.45z"/>
						</g>
					</g>
					<g>
						<g>
							<path class="st11" d="M925.26,337.57c3.17-0.64,6.26,1.42,6.9,4.59c0.64,3.17-1.42,6.26-4.59,6.9
								c-3.17,0.64-6.26-1.42-6.9-4.59S922.08,338.2,925.26,337.57z"/>
						</g>
					</g>
					<g>
						<g>
							<path class="st11" d="M877.79,337.57c3.18-0.64,6.26,1.42,6.9,4.59c0.64,3.17-1.42,6.26-4.59,6.9
								c-3.18,0.64-6.26-1.42-6.9-4.59C872.57,341.29,874.62,338.2,877.79,337.57z"/>
						</g>
					</g>
					<g>
						<g>
							<g>
								<path class="st11" d="M860.08,319.94c0.29-1.23,1.85-1.92,3.31-2.14c6.79-0.99,13.55-0.19,20.18,1.29
									c2.33,0.52,8.67,1.39,7.66,4.52c-0.65,2.03-4.36,3.5-6.68,3.27c-5.18-0.51-10.34-1.15-15.48-1.92
									C866.16,324.53,859.13,323.97,860.08,319.94z"/>
							</g>
						</g>
					</g>
					<g>
						<g>
							<g>
								<path class="st11" d="M916.94,320.96c6.29-2.62,13.07-3.46,19.91-3.6c1.91-0.04,3.93-0.3,5.78,0.12
									c0.85,0.19,1.65,0.52,2.18,1.14c0.62,0.73,0.8,2.5,0.42,3.36c-0.38,0.86-1.24,1.51-2.19,1.92
									c-2.72,1.18-6.04,1.36-8.98,1.73c-3.19,0.4-6.38,0.75-9.57,1.04c-2.94,0.27-9.9,1.42-10.14-2.8
									C914.27,322.6,915.59,321.53,916.94,320.96z"/>
							</g>
						</g>
					</g>
					<g>
						<g>
							<path class="st15" d="M906.92,377.78c0.23,0,0.47-0.05,0.7-0.14c3.53-1.52,5.86-3.65,6.92-6.35c0.96-2.44,0.8-5.16-0.48-8.06
								c-0.71-1.63-1.81-3.66-3.05-5.93c-1.5-2.76-3.19-5.89-4.6-9.07c-0.4-0.88-1.43-1.3-2.32-0.89c-0.88,0.39-1.29,1.43-0.89,2.32
								c1.47,3.31,3.2,6.5,4.72,9.33c1.18,2.17,2.24,4.11,2.93,5.67c0.88,2.01,1.03,3.81,0.43,5.35c-0.7,1.76-2.44,3.29-5.05,4.41
								c-0.88,0.38-1.3,1.41-0.92,2.31C905.58,377.38,906.23,377.78,906.92,377.78z"/>
						</g>
					</g>
				</g>
			</g>
			<g>
				<g>
					<g>
						<path class="st15" d="M900.93,445.7c0,0-4.86-17.8-9.34-16.27c-4.49,1.54-11.76,8.9-14.55,11.42
							c-3.12,2.81-1.04,9.51,2.86,9.87c4.07,0.38,14.4-0.92,17.13-0.99C899.77,449.66,900.93,445.7,900.93,445.7z"/>
					</g>
				</g>
				<g>
					<g>
						<g>
							
								<ellipse transform="matrix(0.6226 -0.7826 0.7826 0.6226 -110.881 911.1748)" class="st10" cx="889.2" cy="570.54" rx="26.08" ry="26.08"/>
						</g>
					</g>
					<g>
						<g>
							<path class="st10" d="M913.5,579.98c1.36-4.94,2.81-10.2,5.07-14.8c4.81-9.78,13.28-17.19,19.9-25.85
								c5.25-6.86,9.32-14.53,12.8-22.42c3.33-7.54,7.13-15.76,9.07-23.77c1.28-5.27,1.07-11.26-2.22-15.58
								c-1.51-1.98-3.61-3.52-4.82-5.7c-2.17-3.9-1.09-9.08-3.53-12.82c-2.35-3.59-7.18-4.68-10.15-7.78
								c-1.61-1.68-2.58-3.87-3.92-5.77c-2.83-4.01-7.24-6.66-11.86-8.31c-1.56-0.56-3.24-1.07-4.28-2.36
								c-0.95-1.18-1.17-2.79-1.96-4.09c-1.46-2.41-4.52-3.26-7.32-3.61c-6.29-0.77-12.77,0.02-18.69,2.29
								c-0.78,0.3-1.7,0.83-1.64,1.67c0.04,0.63,0.62,1.07,1.12,1.47c6.17,4.95,2.27,13.65,0.85,19.89
								c-2.31,10.11-9.52,30.87-21.23,33.68c-6.62,1.59-7.6-8.82-7.67-13.2c-0.06-4,0.18-8.1-1.07-11.9
								c-1.25-3.8-4.45-7.31-8.45-7.46c-1.44-0.05-2.96,0.39-3.9,1.48c-2.22,2.61-0.86,7.78-0.83,10.89c0.04,4.5-0.23,9-0.12,13.51
								c0.07,3.13,0.14,6.25,0.21,9.38c0.14,6.29,0.29,12.59,1.1,18.83c1.27,9.74,7.41,17.14,11.05,26.27
								c3.64,9.12,6.06,19.32,3.31,28.75L913.5,579.98z"/>
						</g>
					</g>
				</g>
				<g>
					<g>
						<g>
							<path class="st15" d="M849.3,510.56c0.08,0,0.15-0.01,0.23-0.02c0.76-0.13,1.28-0.85,1.15-1.62
								c-0.08-0.43-0.14-0.88-0.2-1.33c-0.77-5.89-0.95-11.83-1.09-18.43l-0.01-0.36c-0.07-3.1-0.14-6.23-0.22-9.35
								c-0.05-2.43,0-4.89,0.06-7.28l0.01-0.56c0.04-1.89,0.08-3.78,0.06-5.66c0-0.81-0.1-1.76-0.21-2.76
								c-0.28-2.85-0.59-6.03,0.91-7.79c0.7-0.81,2.02-1.3,3.53-1.3c3.87,0.14,6.78,3.66,7.9,7.09c1,3.05,1.02,6.38,1.03,9.61
								l0.01,2.14c0.05,2.99,0.53,10.23,3.95,12.88c1.22,0.94,2.74,1.22,4.38,0.83c11.65-2.8,19.63-25.08,22.22-36.46
								c0.17-0.76-0.3-1.51-1.06-1.68c-0.71-0.17-1.5,0.3-1.68,1.06c-2.74,12.07-10.64,32.06-20.13,34.35
								c-1.11,0.27-1.66-0.07-2-0.32c-2.01-1.56-2.8-6.74-2.86-10.69l-0.01-1.98c-0.01-3.58-0.03-7.14-1.17-10.61
								c-1.44-4.36-5.25-8.84-10.53-9.03l0,0c-2.4,0-4.46,0.83-5.71,2.28c-2.28,2.68-1.91,6.48-1.59,9.84
								c0.11,0.98,0.2,1.83,0.2,2.55c0.02,1.87-0.02,3.73-0.05,5.59l-0.01,0.55c-0.06,2.42-0.12,4.92-0.06,7.41
								c0.08,3.12,0.15,6.25,0.22,9.37l0.01,0.36c0.14,6.65,0.33,12.68,1.11,18.71c0.06,0.49,0.14,0.96,0.21,1.44
								C848.03,510.07,848.62,510.56,849.3,510.56z"/>
						</g>
					</g>
				</g>
			</g>
			<g>
				<g>
					<path class="st13" d="M856.43,562.26l-53.79,116.61l-48.76-128.21c0,0-8.88-25.63-28.89-36.49
						c-12.99-7.05-29.86-12.17-54.34-1.93c-23.53,9.84-39.43,32.73-36.97,62.71c5.81,70.82,96.36,199.09,137.72,250.08
						c23.32,28.75,70.26,29.84,82.94-13.07c16.47-55.73,63.68-223.56,63.68-223.56L856.43,562.26z"/>
				</g>
			</g>
			<g>
				<g>
					<g>
						<path class="st14" d="M801.86,687.95l-2.97-7.84c-0.42-1.11-42.02-110.96-47.42-124.69c-5.97-15.18-15.07-33.52-32.51-40.57
							c-1.8-0.73-2.67-2.78-1.94-4.58c0.73-1.81,2.79-2.67,4.58-1.94c20.15,8.15,30.44,29.32,36.42,44.53
							c4.56,11.6,34.8,91.39,44.48,116.93l50.29-108.99c0.82-1.78,2.91-2.54,4.66-1.72c1.76,0.82,2.53,2.9,1.72,4.66L801.86,687.95z
							"/>
					</g>
				</g>
				<g>
					<g>
						<path class="st14" d="M837.41,840.8c-1.26,0-2.49-0.69-3.12-1.9c-0.9-1.72-0.23-3.85,1.5-4.74
							c3.89-2.03,11.21-11.17,15.3-25.17c3.84-13.13,55-193.07,62.25-218.57l-2.88-1.23c-1.79-0.76-2.62-2.82-1.86-4.61
							c0.77-1.79,2.85-2.63,4.61-1.86l8.6,3.65l-0.85,2.99c-0.58,2.07-58.99,207.52-63.12,221.62
							c-4.44,15.22-12.82,26.32-18.8,29.43C838.51,840.67,837.96,840.8,837.41,840.8z"/>
					</g>
				</g>
				<g>
					<g>
						<path class="st14" d="M737.05,783.5c-1.15,0-2.28-0.56-2.95-1.61l-59.57-91.97c-1.05-1.63-0.59-3.8,1.04-4.86
							c1.61-1.03,3.8-0.6,4.86,1.04L740,778.07c1.05,1.63,0.59,3.8-1.04,4.86C738.37,783.31,737.71,783.5,737.05,783.5z"/>
					</g>
				</g>
				<g>
					<g>
						<path class="st14" d="M861.83,788.35c-1.57,0-2.99-1.05-3.4-2.63c-0.49-1.87,0.63-3.8,2.51-4.29l139.99-36.49l4.14-125.76
							c0.07-1.94,1.39-3.22,3.63-3.4c1.94,0.07,3.46,1.69,3.4,3.63l-4.32,131l-145.07,37.81
							C862.42,788.32,862.12,788.35,861.83,788.35z"/>
					</g>
				</g>
				<g>
					<g>
						<path class="st14" d="M841.03,864.67c-1.77,0-3.3-1.34-3.49-3.15c-0.21-1.93,1.19-3.66,3.12-3.87l175.78-18.69
							c1.85-0.27,3.66,1.19,3.87,3.12c0.21,1.93-1.19,3.66-3.12,3.87l-175.78,18.69C841.29,864.66,841.16,864.67,841.03,864.67z"/>
					</g>
				</g>
			</g>
		</g>
		<g>
			<g>
				<g>
					<polygon class="st16" points="1624.29,1554.97 1604.19,1622.13 1583.37,1691.66 1557.66,1777.47 1536.84,1847.07 
						1508.5,1941.64 1786.03,1941.64 1757.69,1847.07 1736.86,1777.47 1711.16,1691.66 1690.33,1622.13 1670.23,1554.97 					"/>
				</g>
			</g>
			<g>
				<g>
					<rect x="1469.16" y="1904.25" class="st16" width="356.22" height="37.4"/>
				</g>
			</g>
			<g>
				<g>
					<g>
						<polygon class="st17" points="1711.16,1691.66 1583.37,1691.66 1604.19,1622.13 1690.33,1622.13 						"/>
					</g>
				</g>
				<g>
					<g>
						<polygon class="st17" points="1757.69,1847.07 1536.84,1847.07 1557.66,1777.47 1736.86,1777.47 						"/>
					</g>
				</g>
			</g>
		</g>
	</g>
</g>
</svg>
