<svg id="Capa_1" data-name="Capa 1" xmlns="http://www.w3.org/2000/svg" width="498.91" height="500" viewBox="0 0 498.91 500">
    <title>calculator</title>
    <g id="_459823888" data-name=" 459823888">
        <path class="fill-[#507c3a]" id="_459824704" d="M257.73,369.68H122.59a7.24,7.24,0,0,1-7.13-7.34V137.67a7.24,7.24,0,0,1,7.13-7.33H293.51a7.24,7.24,0,0,1,7.13,7.33v59.39H271.79a20.56,20.56,0,0,0-20.52,20.56V354.71a20.5,20.5,0,0,0,6.46,15Zm-28.11-94.5h0a2.8,2.8,0,0,1-2.79-2.8v-8.91l-26,26.09a2.81,2.81,0,0,1-4,0l-9.92-9.94-19.41,18.6a2.79,2.79,0,1,1-3.85-4.05l21.38-20.49a2.76,2.76,0,0,1,3.9.05l9.9,9.92,24.06-24.11H214a2.8,2.8,0,0,1,0-5.6h15.63a2.93,2.93,0,0,1,.87.14h.16l0,0h0l0,0,0,0,0,0,0,0,0,0,0,0,0,0,0,0,0,0a.4.4,0,0,1,.15.09l0,0a1.92,1.92,0,0,1,.46.36,2.79,2.79,0,0,1,.82,2.07v15.57a2.77,2.77,0,0,1-2.8,2.73Zm-57.31,66.43H150.86a2.8,2.8,0,0,1-2.8-2.8V282.32h-6.6v65.9H241.59v-6.61H172.31Zm-2.79-5.6V318.32h-4.38V336Zm-10,0V315.52a2.8,2.8,0,0,1,2.79-2.8h10a2.81,2.81,0,0,1,2.8,2.8V336h4.64v-27.6a2.8,2.8,0,0,1,2.8-2.8h10a2.79,2.79,0,0,1,2.79,2.8V336H200V299.09a2.8,2.8,0,0,1,2.79-2.8h10a2.8,2.8,0,0,1,2.79,2.8V336h4.65V286.9a2.8,2.8,0,0,1,2.79-2.8h10a2.81,2.81,0,0,1,2.8,2.8V336h8.71a2.8,2.8,0,0,1,2.8,2.8V351a2.8,2.8,0,0,1-2.8,2.8H138.72a2.8,2.8,0,0,1-2.79-2.8V279.5a2.79,2.79,0,0,1,2.79-2.8h12.16a2.79,2.79,0,0,1,2.79,2.8V336l5.88,0Zm30.15,0V311.2h-4.38V336Zm20.2,0V301.87h-4.38V336Zm20.18,0V289.7H225.7V336Zm44.24-144H141.78a5.92,5.92,0,0,1-5.9-5.91v-34a5.92,5.92,0,0,1,5.9-5.91H274.32a5.92,5.92,0,0,1,5.9,5.91v34A5.89,5.89,0,0,1,274.32,192ZM141.78,151.79a.32.32,0,0,0-.32.31v34a.32.32,0,0,0,.32.31H274.32a.31.31,0,0,0,.31-.31v-34a.31.31,0,0,0-.31-.31ZM154.9,213H138.67a2.8,2.8,0,0,1,0-5.6H154.9a2.8,2.8,0,0,1,0,5.6Zm88.84,0h-76.8a2.8,2.8,0,0,1,0-5.6h76.8a2.8,2.8,0,0,1,0,5.6ZM154.9,230H138.67a2.8,2.8,0,0,1,0-5.6H154.9a2.8,2.8,0,0,1,0,5.6Zm88.84,0h-76.8a2.8,2.8,0,0,1,0-5.6h76.8a2.8,2.8,0,0,1,0,5.6Zm-88.84,17H138.67a2.8,2.8,0,0,1,0-5.6H154.9a2.8,2.8,0,1,1,0,5.6Zm88.84,0h-76.8a2.8,2.8,0,0,1,0-5.6h76.8a2.8,2.8,0,0,1,0,5.6Z" style="fill:#507c3a;fill-rule:evenodd"/>|
        <path class="fill-[#507c3a]" id="_459824920" d="M368.52,369.68H271.79a15,15,0,0,1-14.93-15V217.62a15,15,0,0,1,14.93-15h96.73a15,15,0,0,1,14.93,15V354.71A15,15,0,0,1,368.52,369.68Zm-6.93-105.94H278.72a8,8,0,0,1-8-8V224.57a8,8,0,0,1,8-8h82.87a8,8,0,0,1,8,8V255.7a8,8,0,0,1-8,8Zm-82.87-41.61a2.43,2.43,0,0,0-2.43,2.44V255.7a2.43,2.43,0,0,0,2.43,2.44h82.87A2.43,2.43,0,0,0,364,255.7V224.57a2.43,2.43,0,0,0-2.43-2.44Zm83.66,62.58h-8a7.24,7.24,0,0,1,0-14.48h8a7.24,7.24,0,0,1,0,14.48Zm-8-8.88a1.64,1.64,0,1,0,0,3.28h8a1.64,1.64,0,0,0,0-3.28Zm-17.46,8.88h-8a7.24,7.24,0,0,1,0-14.48h8a7.24,7.24,0,0,1,0,14.48Zm-8-8.88a1.64,1.64,0,0,0,0,3.28h8a1.64,1.64,0,0,0,0-3.28Zm-17.45,8.88h-8a7.24,7.24,0,0,1,0-14.48h8a7.24,7.24,0,0,1,0,14.48Zm-8-8.88a1.64,1.64,0,0,0,0,3.28h8a1.64,1.64,0,0,0,0-3.28ZM286,284.71h-8a7.24,7.24,0,0,1,0-14.48h8a7.24,7.24,0,0,1,0,14.48Zm-8-8.88a1.64,1.64,0,0,0,0,3.28h8a1.64,1.64,0,0,0,0-3.28Zm80.43,80a11.24,11.24,0,0,1-11.22-11.25V321.44a11.22,11.22,0,1,1,22.44,0v23.11A11.22,11.22,0,0,1,358.36,355.8Zm0-40a5.67,5.67,0,0,0-5.66,5.67v23.11a5.66,5.66,0,1,0,11.32,0V321.44A5.66,5.66,0,0,0,358.36,315.77Zm4-11.11h-8a7.24,7.24,0,0,1,0-14.47h8a7.24,7.24,0,0,1,0,14.47Zm-8-8.88a1.65,1.65,0,0,0,0,3.29h8a1.65,1.65,0,0,0,0-3.29Zm-17.46,8.88h-8a7.24,7.24,0,0,1,0-14.47h8a7.24,7.24,0,0,1,0,14.47Zm-8-8.88a1.65,1.65,0,0,0,0,3.29h8a1.65,1.65,0,0,0,0-3.29Zm-17.45,8.88h-8a7.24,7.24,0,0,1,0-14.47h8a7.24,7.24,0,0,1,0,14.47Zm-8-8.88a1.65,1.65,0,0,0,0,3.29h8a1.65,1.65,0,0,0,0-3.29ZM286,304.66h-8a7.24,7.24,0,0,1,0-14.47h8a7.24,7.24,0,0,1,0,14.47Zm-8-8.88a1.65,1.65,0,0,0,0,3.29h8a1.65,1.65,0,0,0,0-3.29Zm54.95,36.11a9.87,9.87,0,1,1,9.85-9.87A9.87,9.87,0,0,1,332.88,331.89Zm0-14.15a4.28,4.28,0,1,0,4.26,4.28A4.27,4.27,0,0,0,332.88,317.74ZM307.4,331.89a9.87,9.87,0,1,1,9.85-9.87A9.86,9.86,0,0,1,307.4,331.89Zm0-14.15a4.28,4.28,0,1,0,4.27,4.28A4.28,4.28,0,0,0,307.4,317.74ZM282,331.89A9.87,9.87,0,1,1,291.8,322,9.87,9.87,0,0,1,282,331.89Zm0-14.15a4.28,4.28,0,1,0,4.26,4.28A4.27,4.27,0,0,0,282,317.74Zm50.93,36.08a9.87,9.87,0,1,1,9.85-9.87A9.87,9.87,0,0,1,332.88,353.82Zm0-14.14a4.27,4.27,0,1,0,4.26,4.27A4.27,4.27,0,0,0,332.88,339.68ZM307.4,353.82a9.87,9.87,0,1,1,9.85-9.87A9.86,9.86,0,0,1,307.4,353.82Zm0-14.14a4.27,4.27,0,1,0,4.27,4.27A4.28,4.28,0,0,0,307.4,339.68ZM282,353.82A9.87,9.87,0,1,1,291.8,344,9.87,9.87,0,0,1,282,353.82Zm0-14.14a4.27,4.27,0,1,0,4.26,4.27A4.27,4.27,0,0,0,282,339.68Z" style="fill:#507c3a;fill-rule:evenodd"/>
        <path class="fill-[#507c3a]" id="_459824656" d="M267,500c1-.2,1.9-.36,2.77-.56C608.12,431.31,541.42,41.51,267,.29,247-3.57,238.58,34.05,272,40c237.68,60.69,273.44,361.74-5,460Z" style="fill:#507c3a;fill-rule:evenodd"/>
        <path class="fill-[#507c3a]" id="_459824872" d="M231.91,0c-1,.19-1.9.36-2.77.56-338.36,68.12-271.65,457.92,2.77,499.16,20,3.86,28.42-33.76-5-39.67-237.66-60.69-273.44-361.76,5-460Z" style="fill:#507c3a;fill-rule:evenodd"/>
    </g>
</svg>