<svg id="visual" viewBox="0 0 1200 800" width="1200" height="800" xmlns="http://www.w3.org/2000/svg" xmlns:xlink="http://www.w3.org/1999/xlink" version="1.1"><rect x="0" y="0" width="1200" height="800" fill="#001220"></rect><path d="M0 347L28.5 358.5C57 370 114 393 171.2 390.5C228.3 388 285.7 360 342.8 364.3C400 368.7 457 405.3 514.2 415.2C571.3 425 628.7 408 685.8 399.5C743 391 800 391 857.2 380C914.3 369 971.7 347 1028.8 327.5C1086 308 1143 291 1171.5 282.5L1200 274L1200 801L1171.5 801C1143 801 1086 801 1028.8 801C971.7 801 914.3 801 857.2 801C800 801 743 801 685.8 801C628.7 801 571.3 801 514.2 801C457 801 400 801 342.8 801C285.7 801 228.3 801 171.2 801C114 801 57 801 28.5 801L0 801Z" fill="#5cb59e"></path><path d="M0 396L28.5 396.8C57 397.7 114 399.3 171.2 410.7C228.3 422 285.7 443 342.8 455.5C400 468 457 472 514.2 472.8C571.3 473.7 628.7 471.3 685.8 466.2C743 461 800 453 857.2 444C914.3 435 971.7 425 1028.8 432.7C1086 440.3 1143 465.7 1171.5 478.3L1200 491L1200 801L1171.5 801C1143 801 1086 801 1028.8 801C971.7 801 914.3 801 857.2 801C800 801 743 801 685.8 801C628.7 801 571.3 801 514.2 801C457 801 400 801 342.8 801C285.7 801 228.3 801 171.2 801C114 801 57 801 28.5 801L0 801Z" fill="#43948f"></path><path d="M0 490L28.5 491.8C57 493.7 114 497.3 171.2 505.8C228.3 514.3 285.7 527.7 342.8 509.5C400 491.3 457 441.7 514.2 416.7C571.3 391.7 628.7 391.3 685.8 403.5C743 415.7 800 440.3 857.2 464.7C914.3 489 971.7 513 1028.8 513.3C1086 513.7 1143 490.3 1171.5 478.7L1200 467L1200 801L1171.5 801C1143 801 1086 801 1028.8 801C971.7 801 914.3 801 857.2 801C800 801 743 801 685.8 801C628.7 801 571.3 801 514.2 801C457 801 400 801 342.8 801C285.7 801 228.3 801 171.2 801C114 801 57 801 28.5 801L0 801Z" fill="#367479"></path><path d="M0 504L28.5 501.7C57 499.3 114 494.7 171.2 493.2C228.3 491.7 285.7 493.3 342.8 500.8C400 508.3 457 521.7 514.2 536.3C571.3 551 628.7 567 685.8 574C743 581 800 579 857.2 560.5C914.3 542 971.7 507 1028.8 507.8C1086 508.7 1143 545.3 1171.5 563.7L1200 582L1200 801L1171.5 801C1143 801 1086 801 1028.8 801C971.7 801 914.3 801 857.2 801C800 801 743 801 685.8 801C628.7 801 571.3 801 514.2 801C457 801 400 801 342.8 801C285.7 801 228.3 801 171.2 801C114 801 57 801 28.5 801L0 801Z" fill="#305b64"></path><path d="M0 508L28.5 515.2C57 522.3 114 536.7 171.2 553.8C228.3 571 285.7 591 342.8 585C400 579 457 547 514.2 539.7C571.3 532.3 628.7 549.7 685.8 564.5C743 579.3 800 591.7 857.2 588.5C914.3 585.3 971.7 566.7 1028.8 568.2C1086 569.7 1143 591.3 1171.5 602.2L1200 613L1200 801L1171.5 801C1143 801 1086 801 1028.8 801C971.7 801 914.3 801 857.2 801C800 801 743 801 685.8 801C628.7 801 571.3 801 514.2 801C457 801 400 801 342.8 801C285.7 801 228.3 801 171.2 801C114 801 57 801 28.5 801L0 801Z" fill="#305b64"></path><path d="M0 632L28.5 636.5C57 641 114 650 171.2 655C228.3 660 285.7 661 342.8 656C400 651 457 640 514.2 630.7C571.3 621.3 628.7 613.7 685.8 610C743 606.3 800 606.7 857.2 604.5C914.3 602.3 971.7 597.7 1028.8 599.2C1086 600.7 1143 608.3 1171.5 612.2L1200 616L1200 801L1171.5 801C1143 801 1086 801 1028.8 801C971.7 801 914.3 801 857.2 801C800 801 743 801 685.8 801C628.7 801 571.3 801 514.2 801C457 801 400 801 342.8 801C285.7 801 228.3 801 171.2 801C114 801 57 801 28.5 801L0 801Z" fill="#367479"></path><path d="M0 693L28.5 683.3C57 673.7 114 654.3 171.2 650.2C228.3 646 285.7 657 342.8 656.7C400 656.3 457 644.7 514.2 649.2C571.3 653.7 628.7 674.3 685.8 683.8C743 693.3 800 691.7 857.2 690.2C914.3 688.7 971.7 687.3 1028.8 680.5C1086 673.7 1143 661.3 1171.5 655.2L1200 649L1200 801L1171.5 801C1143 801 1086 801 1028.8 801C971.7 801 914.3 801 857.2 801C800 801 743 801 685.8 801C628.7 801 571.3 801 514.2 801C457 801 400 801 342.8 801C285.7 801 228.3 801 171.2 801C114 801 57 801 28.5 801L0 801Z" fill="#43948f"></path><path d="M0 717L28.5 718.5C57 720 114 723 171.2 727.3C228.3 731.7 285.7 737.3 342.8 732.3C400 727.3 457 711.7 514.2 705.7C571.3 699.7 628.7 703.3 685.8 706.3C743 709.3 800 711.7 857.2 718.2C914.3 724.7 971.7 735.3 1028.8 736.7C1086 738 1143 730 1171.5 726L1200 722L1200 801L1171.5 801C1143 801 1086 801 1028.8 801C971.7 801 914.3 801 857.2 801C800 801 743 801 685.8 801C628.7 801 571.3 801 514.2 801C457 801 400 801 342.8 801C285.7 801 228.3 801 171.2 801C114 801 57 801 28.5 801L0 801Z" fill="#5cb59e"></path></svg>